<svg id="Layer_1" data-name="Layer 1" xmlns="http://www.w3.org/2000/svg" xmlns:xlink="http://www.w3.org/1999/xlink" viewBox="0 0 2000 2000"><defs><style>.cls-1{fill:url(#linear-gradient);}.cls-2{fill:url(#linear-gradient-2);}.cls-3{fill:#33d9b8;}.cls-4{fill:#31d8b7;}</style><linearGradient id="linear-gradient" x1="389.88" y1="-254.13" x2="1397.14" y2="-254.13" gradientTransform="matrix(1, 0, 0, -1, 0, 367.67)" gradientUnits="userSpaceOnUse"><stop offset="0" stop-color="#00b090"/><stop offset="1" stop-color="#33d9b8"/></linearGradient><linearGradient id="linear-gradient-2" x1="492.43" y1="24.87" x2="1451.03" y2="24.87" xlink:href="#linear-gradient"/></defs><title>Artboard 2</title><path class="cls-1" d="M1397.14,541.66c-101.29,136.72-283.05,336.09-534.78,337.69h-2.05A560.18,560.18,0,0,1,790.57,875c-504.36-70.65-406.74-345.7-363.3-430.75,5.26-3,11-5.72,16.69-8.23,95.12-46.41,215.38-71.79,348-71.79,80.94,0,166.45,9.37,253.1,29.26C1176.28,424.14,1297,475.13,1397.14,541.66Z"/><path class="cls-2" d="M1443.78,474c-1.6,3-3,5.26-4.57,8.23-3.89,6-8.24,11.89-13,18.75-105.4-70.42-232.06-124.38-369.7-155.93-207.37-47.78-407.65-37-564,18.29a670,670,0,0,1,83.91-67.9c161-111.35,458.18-215.37,849.15,94A69.38,69.38,0,0,1,1443.78,474Z"/><path class="cls-3" d="M1256.07,1328.16c-101.06,55.1-218.35,83-342.95,74.3C723.35,1390.12,555.31,1290.89,449,1144.11c107.92,75.45,240.75,133.06,385,166.44,89.4,20.35,177.42,30.41,261.1,30.41A993.48,993.48,0,0,0,1256.07,1328.16Z"/><path class="cls-3" d="M1584.16,775.78v1.37c0,177.42-73.39,337-191.6,450.64-8.23,8-16.69,16-25.37,23.32-145,47.33-330.15,54.64-521.75,10.74-186.79-43-351.64-127.57-465.72-239.15a573,573,0,0,1-42.3-148.61c-2.29-16-4.57-32.69-5.95-49.61-10.74-139.7,24.7-270,92.6-378.39a15.14,15.14,0,0,0,3.43-1.6c5.26-3,11-5.72,16.69-8.23C484,643.4,645.85,812.59,860.53,878.89a7.15,7.15,0,0,1,2.06.69c62.65,19.66,130.09,29.95,200.28,29.95,172.62,0,329-64.25,442.64-166.67C1534.32,715.42,1584.16,736.23,1584.16,775.78Z"/><path d="M418.58,1600.46H297V1635H398.24v68.82H297v34.53H418.58v72.93H216.24V1527.53H418.58Z"/><path d="M580.69,1525.24c72,0,113.4,33.15,113.4,101.28v186.34H612.92v-52.81h-64.7v52.81H467.06V1626.52C467.28,1558.39,508.67,1525.24,580.69,1525.24Zm-32.24,166.22h64.7v-64.94c0-24.92-15.55-32.46-32.46-32.46s-32.47,7.31-32.47,32.46v64.94Z"/><path d="M963.19,1624.7H884.31v-10.06c-.23-19-15.55-24.24-32.46-24.24s-32.47,5.26-32.47,24.24,15.55,20.12,32.47,22.4c70.19,8.23,111.34,21,111.34,87.11,0,64-41.38,91.23-111.34,91.23s-111.35-27.21-111.35-91.23v-10.06h78.88v10.06c0,19,15.55,24.24,32.47,24.24s32.46-5.26,32.46-24.24-15.55-20.12-32.46-22.4c-70.19-8.24-111.35-21-111.35-87.11,0-64,41.38-91.23,111.35-91.23s111.57,27.21,111.34,91.23Z"/><path d="M1152,1527.53h80.71v93c0,54.19-26.07,86-72.94,97.17V1811h-81.16v-93.28c-46.87-11-72.93-43-72.93-97.17v-93h81.16v93c0,24.92,15.55,32.47,32.47,32.47,17.14,0,32.46-7.32,32.46-32.47v-93Z"/><path class="cls-4" d="M1394.85,1527.53c72,0,113.4,33.15,113.4,98.31,0,64.93-41.38,98.31-113.4,98.31h-32.47v87.11h-81.16V1527.75h113.63Zm32.47,98.08c0-21.95-15.55-29.49-32.47-29.49h-32.47v59h32.47C1411.77,1655.1,1427.32,1647.79,1427.32,1625.61Z"/><path class="cls-4" d="M1756.55,1694.89c19,26.06,27.21,64.7,27.21,116.14h-81.17c0-55.78-9.14-87.11-40.47-87.11h-26.29V1811h-81.16v-283.5h113.4c72,0,113.4,33.15,113.4,98.31C1781.93,1655.56,1773,1678.65,1756.55,1694.89Zm-120.49-39.79h32.46c17.15,0,32.47-7.31,32.47-29.49,0-21.95-15.55-29.49-32.47-29.49h-32.46Z"/></svg>